<svg width="948" height="826" viewBox="0 0 948 826" fill="none" xmlns="http://www.w3.org/2000/svg">
<g clip-path="url(#clip0_1414_703)">
<mask id="mask0_1414_703" style="mask-type:luminance" maskUnits="userSpaceOnUse" x="-22" y="29" width="913" height="940">
<path d="M-21.4221 29H891V968.339H-21.4221V29Z" fill="white"/>
</mask>
<g mask="url(#mask0_1414_703)">
<path d="M-50.8878 640.628C-42.0219 632.759 -33.1048 624.931 -24.2388 617.062C26.7018 653.878 78.155 690.204 130.172 726C85.4322 766.973 40.6414 807.906 -4.09827 848.839C-19.8314 838.28 -35.4109 827.558 -50.8878 816.754V640.587V640.628Z" fill="#014B00"/>
<path d="M143.706 737.086C194.954 772.23 246.715 806.843 299.039 841.008C257.579 880.392 216.12 919.817 174.711 959.2C119.209 926.707 64.9888 892.909 12.1519 857.846C55.9691 817.566 99.8888 777.367 143.706 737.086Z" fill="#045700"/>
<path d="M-50.8875 418.227C-47.7614 415.536 -44.6352 412.886 -41.5091 410.195C-6.91659 433.434 27.5734 456.755 61.9609 480.197C31.827 506.616 1.64182 533.035 -28.4921 559.454C-35.9743 554.072 -43.4053 548.609 -50.8875 543.228V418.268V418.227Z" fill="#42D206"/>
<path d="M126.386 527.117C159.287 549.826 192.035 572.616 224.68 595.529C195.776 621.826 166.872 648.122 137.968 674.378C104.862 651.302 71.8577 628.145 39.0077 604.825C68.1166 578.895 97.2255 553.006 126.386 527.117Z" fill="#4ADB04"/>
<path d="M292.015 643.477C324.302 666.389 356.434 689.383 388.516 712.5C361.252 738.226 333.988 763.992 306.724 789.759C273.412 767.213 240.255 744.586 207.2 721.836C235.489 695.703 263.778 669.61 292.067 643.477H292.015Z" fill="#2CE908"/>
<path d="M453.037 737.33C495.111 768.315 536.879 799.504 578.492 830.938C546.411 862.738 514.329 894.498 482.248 926.258C437.099 897.189 392.154 867.916 347.466 838.317C382.622 804.6 417.829 770.924 453.088 737.289L453.037 737.33Z" fill="#3C9100"/>
<path d="M107.623 327.43C122.792 336.644 137.859 345.898 152.875 355.235C140.063 366.365 127.251 377.495 114.439 388.666C99.5257 379.126 84.5612 369.627 69.5455 360.209C82.2551 349.282 94.9134 338.315 107.623 327.43Z" fill="#A8FF0D"/>
<path d="M273.363 388.789C309.595 412.558 345.213 436.898 380.164 461.808C348.441 490.714 316.668 519.62 284.894 548.526C249.379 523.452 213.505 498.664 177.324 474.12C209.354 445.704 241.333 417.246 273.363 388.789Z" fill="#2AC60D"/>
<path d="M438.485 550.234C452.681 560.957 466.825 571.802 480.867 582.687C468.158 594.592 455.499 606.497 442.79 618.402C428.543 607.598 414.193 596.875 399.741 586.193C412.605 574.166 425.519 562.221 438.434 550.234H438.485Z" fill="#A4FF0D"/>
<path d="M592.642 676.258C604.839 686.45 616.933 696.724 628.977 707.08C618.624 717.191 608.221 727.343 597.869 737.494C585.518 727.343 573.116 717.272 560.612 707.202C571.271 696.887 581.982 686.573 592.59 676.258H592.642Z" fill="#A7FF0D"/>
<g opacity="0.4">
<path d="M682.629 689.266C671.252 678.829 659.824 668.473 648.293 658.159C658.594 648.129 668.895 638.1 679.196 628.07C690.419 638.548 701.591 649.108 712.609 659.749C702.616 669.574 692.623 679.4 682.629 689.225V689.266Z" fill="#D0FF0D"/>
<path d="M457.138 540.616C427.568 518.071 397.588 495.973 367.146 474.284C394.769 449.129 422.392 424.014 449.964 398.859C479.995 420.467 509.309 442.646 538.008 465.437C511.051 490.51 484.095 515.543 457.138 540.616Z" fill="#8CFF0D"/>
<path d="M209.405 368.815C177.068 348.267 144.218 328.168 111.009 308.435C138.58 284.748 166.101 261.101 193.672 237.414C227.598 255.964 260.91 275.126 293.555 294.9C265.522 319.525 237.438 344.19 209.405 368.815Z" fill="#88FF0D"/>
<path d="M510.074 964.506C452.318 928.506 395.073 892.058 338.342 855.08C382.569 812.72 426.796 770.36 470.972 728C523.501 767.261 575.518 807.012 627.125 847.211C588.125 886.35 549.074 925.408 510.074 964.506Z" fill="#64BE00"/>
<path d="M246.969 802.154C186.957 762.199 127.561 721.633 68.8814 680.415C120.283 634.019 171.736 587.623 223.138 541.227C280.895 581.466 337.985 622.277 394.461 663.659C345.263 709.81 296.116 755.962 246.918 802.154H246.969Z" fill="#50B300"/>
<path d="M-50.8836 359.476C-45.6051 354.991 -40.3265 350.547 -35.048 346.062C36.9557 391.602 107.934 438.08 177.734 485.577C115.929 540.617 54.0726 595.656 -7.7327 650.695C-22.1847 640.299 -36.5341 629.862 -50.8836 619.384V359.476Z" fill="#1F8400"/>
<path d="M-50.891 773.047C-34.4403 758.247 -18.0409 743.448 -1.59029 728.648C63.6999 774.882 130.476 819.728 198.688 863.23C151.283 907.832 103.878 952.434 56.4739 996.996H2.66333C-15.376 986.314 -33.2104 975.388 -50.8398 964.299V773.006L-50.891 773.047Z" fill="#27A300"/>
</g>
<path d="M-50.8891 820.953C-45.7643 816.387 -40.6907 811.861 -35.5659 807.336C-18.3978 820.26 -0.819664 832.899 17.1172 845.211C1.94773 858.991 -13.1704 872.731 -28.3399 886.511C-35.9246 881.293 -43.4069 875.992 -50.8891 870.652V820.953Z" fill="#58DA00"/>
<path d="M-50.8923 652.893C-49.2523 651.507 -47.6124 650.121 -45.9724 648.734C-19.5284 668.834 7.17191 688.689 34.1797 708.34C10.1443 729.54 -13.8911 750.7 -37.9265 771.9C-42.2826 768.557 -46.5362 765.173 -50.841 761.789V652.934L-50.8923 652.893Z" fill="#075100"/>
<path d="M42.1256 713.359C69.5433 733.174 97.2173 752.702 125.25 771.987C101.163 794.043 77.0768 816.059 52.9902 838.115C24.2399 818.79 -3.79282 798.732 -30.9543 778.02C-6.56021 756.453 17.7827 734.927 42.1768 713.359H42.1256Z" fill="#014B00"/>
<path d="M132.524 777.938C160.095 796.855 187.974 815.487 216.109 833.874C193.816 855.074 171.472 876.275 149.179 897.475C119.302 879.985 90.1414 861.801 61.6987 842.925C85.2728 821.276 108.898 799.586 132.524 777.938Z" fill="#045700"/>
<path d="M-50.8927 538.539C-30.291 551.749 -9.74051 565.039 10.6562 578.412C-8.81804 594.842 -28.2923 611.273 -47.7666 627.703C-48.8428 626.928 -49.8678 626.113 -50.8927 625.338V538.539Z" fill="#349A00"/>
<path d="M32.8479 602.016C51.5022 614.491 70.0541 627.048 88.5547 639.687C72.309 653.916 56.1146 668.104 39.8689 682.332C21.5734 669.204 3.38024 655.995 -14.7616 642.745C1.12533 629.168 17.0122 615.592 32.8479 602.016Z" fill="#42D206"/>
<path d="M123.198 664.922C140.878 677.153 158.508 689.425 176.086 701.737C160.507 715.884 144.978 730.031 129.399 744.179C111.565 731.785 93.8327 719.268 76.152 706.752C91.834 692.809 107.516 678.865 123.198 664.922Z" fill="#4ADB04"/>
<path d="M212.32 727.586C229.693 739.898 247.015 752.293 264.234 764.727C249.577 778.589 234.869 792.451 220.212 806.313C202.275 794.204 184.441 782.014 166.658 769.742C181.879 755.676 197.099 741.611 212.32 727.586Z" fill="#2CE908"/>
<path d="M298.983 778.102C321.634 794.776 344.132 811.574 366.477 828.493C349.206 845.617 331.935 862.699 314.665 879.822C290.373 864.167 266.184 848.389 242.149 832.489C261.059 814.346 280.021 796.244 298.983 778.102Z" fill="#3C9100"/>
<path d="M17.5241 501.602C26.6975 506.575 35.8197 511.631 44.8906 516.686C37.8696 522.557 30.8486 528.428 23.8276 534.299C14.9105 528.999 5.99325 523.78 -3.02643 518.562C3.84082 512.936 10.6569 507.269 17.5241 501.642V501.602Z" fill="#B2FF0D"/>
<path d="M113.102 557.453C121.251 562.386 129.399 567.401 137.445 572.416C130.527 578.409 123.66 584.402 116.741 590.436C108.695 585.299 100.649 580.203 92.552 575.107C99.368 569.236 106.235 563.324 113.051 557.453H113.102Z" fill="#A8FF0D"/>
<path d="M202.328 590.477C221.853 603.278 241.02 616.365 259.828 629.779C242.762 645.353 225.646 660.886 208.58 676.46C189.464 662.965 170.144 649.634 150.67 636.424C167.889 621.136 185.108 605.806 202.379 590.477H202.328Z" fill="#2AC60D"/>
<path d="M291.187 677.398C298.823 683.188 306.459 689.018 313.992 694.889C307.176 701.29 300.309 707.691 293.493 714.132C285.806 708.302 278.118 702.554 270.329 696.805C277.247 690.363 284.217 683.881 291.187 677.439V677.398Z" fill="#A4FF0D"/>
<path d="M374.158 745.195C380.717 750.699 387.226 756.203 393.734 761.789C388.148 767.252 382.562 772.715 376.976 778.178C370.314 772.715 363.652 767.293 356.938 761.87C362.678 756.325 368.418 750.781 374.158 745.195Z" fill="#A7FF0D"/>
<g opacity="0.4">
<path d="M422.596 752.216C416.497 746.589 410.296 741.045 404.095 735.459C409.63 730.077 415.165 724.696 420.699 719.273C426.747 724.9 432.743 730.608 438.688 736.315C433.306 741.615 427.925 746.915 422.544 752.175L422.596 752.216Z" fill="#D0FF0D"/>
<path d="M301.189 672.22C285.302 660.111 269.159 648.206 252.76 636.505C267.622 622.97 282.484 609.434 297.345 595.898C313.489 607.518 329.273 619.463 344.75 631.735C330.247 645.23 315.744 658.725 301.24 672.22H301.189Z" fill="#8CFF0D"/>
<path d="M167.892 579.759C150.468 568.711 132.838 557.866 114.953 547.266C129.763 534.545 144.625 521.784 159.436 509.023C177.68 519.012 195.617 529.327 213.195 539.968C198.077 553.218 183.01 566.509 167.892 579.759Z" fill="#88FF0D"/>
<path d="M20.3949 481.292C10.299 476.155 0.151878 471.1 -10.0978 466.126C-3.07676 460.459 3.99546 454.792 11.0165 449.125C21.4711 453.814 31.9257 458.584 42.2266 463.435C34.9493 469.388 27.6721 475.34 20.3949 481.333V481.292Z" fill="#BFFF0D"/>
<path d="M329.735 900.332C298.678 880.967 267.827 861.315 237.283 841.42C261.062 818.629 284.893 795.839 308.672 773.008C336.961 794.167 364.942 815.531 392.719 837.18C371.707 858.258 350.695 879.254 329.684 900.332H329.735Z" fill="#64BE00"/>
<path d="M188.078 812.999C155.791 791.473 123.812 769.661 92.2435 747.482C119.918 722.49 147.592 697.539 175.266 672.547C206.373 694.196 237.071 716.171 267.461 738.431C240.966 763.26 214.522 788.13 188.078 812.958V812.999Z" fill="#50B300"/>
<path d="M-50.8924 641.319C-21.8347 616.694 7.22298 592.109 36.2807 567.484C75.0243 591.987 113.255 617.02 150.82 642.583C117.56 672.222 84.249 701.821 50.9889 731.42C16.4477 706.591 -17.4274 681.232 -50.8924 655.507V641.319Z" fill="#1F8400"/>
<path d="M-50.8889 517.375C-31.8246 528.954 -12.8628 540.614 5.94531 552.396C-13.0165 568.215 -31.9271 584.075 -50.8889 599.893V517.375Z" fill="#229B00"/>
<path d="M74.5141 928.26C35.4117 905.918 -2.10188 881.904 -37.7193 856.301C-7.02171 828.659 23.6759 801.017 54.3736 773.375C89.4786 798.245 125.455 822.38 162.148 845.823C132.937 873.302 103.726 900.781 74.5141 928.26Z" fill="#27A300"/>
<path d="M-50.8909 697.461C-28.0855 715.4 -4.97259 733.053 18.6016 750.339C-4.5626 770.887 -27.7268 791.476 -50.8909 812.024V697.461Z" fill="#2CAD00"/>
</g>
</g>
</g>
<defs>
<clipPath id="clip0_1414_703">
<rect width="969" height="968" fill="white" transform="matrix(-1 0 0 1 948 0)"/>
</clipPath>
</defs>
</svg>
