<svg width="969" height="826" viewBox="0 0 969 826" fill="none" xmlns="http://www.w3.org/2000/svg">
<g clip-path="url(#clip0_1414_789)">
<mask id="mask0_1414_789" style="mask-type:luminance" maskUnits="userSpaceOnUse" x="57" y="-143" width="913" height="940">
<path d="M969.422 797H57V-142.339H969.422V797Z" fill="white"/>
</mask>
<g mask="url(#mask0_1414_789)">
<path d="M998.888 185.372C990.022 193.241 981.105 201.069 972.239 208.938C921.298 172.122 869.845 135.796 817.828 100C862.568 59.0265 907.359 18.0936 952.098 -22.8394C967.831 -12.28 983.411 -1.55753 998.888 9.24649V185.413V185.372Z" fill="#014B00"/>
<path d="M804.294 88.9141C753.046 53.7704 701.285 19.1567 648.961 -15.0085C690.421 -54.3922 731.88 -93.8167 773.289 -133.2C828.791 -100.707 883.011 -66.9086 935.848 -31.8465C892.031 8.4342 848.111 48.6334 804.294 88.9141Z" fill="#045700"/>
<path d="M998.888 407.773C995.761 410.464 992.635 413.114 989.509 415.805C954.917 392.566 920.427 369.245 886.039 345.803C916.173 319.384 946.358 292.965 976.492 266.546C983.974 271.928 991.405 277.391 998.888 282.772V407.732V407.773Z" fill="#42D206"/>
<path d="M821.614 298.883C788.713 276.174 755.965 253.384 723.32 230.471C752.224 204.174 781.128 177.878 810.032 151.622C843.138 174.698 876.142 197.855 908.992 221.175C879.883 247.105 850.774 272.994 821.614 298.883Z" fill="#4ADB04"/>
<path d="M655.985 182.523C623.698 159.611 591.566 136.617 559.484 113.5C586.748 87.7742 614.012 62.0076 641.276 36.241C674.588 58.7867 707.745 81.4141 740.8 104.164C712.511 130.297 684.222 156.39 655.933 182.523H655.985Z" fill="#2CE908"/>
<path d="M494.963 88.6701C452.889 57.685 411.121 26.496 369.508 -4.93756C401.589 -36.7381 433.671 -68.4979 465.752 -100.258C510.901 -71.1887 555.846 -41.9159 600.534 -12.3169C565.378 21.3998 530.171 55.0758 494.912 88.7109L494.963 88.6701Z" fill="#3C9100"/>
<path d="M998.887 591.852C988.278 586.021 977.67 580.232 967.164 574.361C977.721 565.514 988.33 556.708 998.887 547.861V591.852Z" fill="#B2FF0D"/>
<path d="M840.377 498.57C825.208 489.356 810.141 480.102 795.125 470.765C807.937 459.635 820.749 448.505 833.561 437.334C848.474 446.874 863.439 456.373 878.454 465.791C865.745 476.718 853.087 487.685 840.377 498.57Z" fill="#A8FF0D"/>
<path d="M674.637 437.211C638.405 413.442 602.787 389.102 567.836 364.192C599.559 335.286 631.332 306.38 663.106 277.474C698.621 302.548 734.495 327.336 770.676 351.88C738.646 380.296 706.667 408.754 674.637 437.211Z" fill="#2AC60D"/>
<path d="M509.515 275.766C495.319 265.043 481.175 254.198 467.133 243.313C479.842 231.408 492.501 219.503 505.21 207.598C519.457 218.402 533.807 229.125 548.259 239.807C535.395 251.834 522.481 263.779 509.566 275.766H509.515Z" fill="#A4FF0D"/>
<path d="M355.358 149.742C343.161 139.55 331.067 129.276 319.023 118.92C329.376 108.809 339.779 98.6575 350.131 88.5058C362.482 98.6575 374.884 108.728 387.388 118.798C376.729 129.113 366.018 139.427 355.41 149.742H355.358Z" fill="#A7FF0D"/>
<g opacity="0.4">
<path d="M265.371 136.734C276.748 147.171 288.176 157.527 299.707 167.841C289.406 177.871 279.105 187.9 268.804 197.93C257.581 187.452 246.409 176.892 235.391 166.251C245.384 156.426 255.377 146.6 265.371 136.775V136.734Z" fill="#D0FF0D"/>
<path d="M490.862 285.384C520.432 307.929 550.412 330.027 580.854 351.716C553.231 376.871 525.608 401.986 498.036 427.141C468.005 405.533 438.691 383.354 409.992 360.563C436.949 335.49 463.905 310.457 490.862 285.384Z" fill="#8CFF0D"/>
<path d="M738.595 457.185C770.932 477.733 803.782 497.832 836.991 517.565C809.42 541.252 781.899 564.899 754.328 588.586C720.402 570.036 687.09 550.874 654.445 531.1C682.478 506.475 710.562 481.81 738.595 457.185Z" fill="#88FF0D"/>
<path d="M437.926 -138.506C495.682 -102.506 552.927 -66.0581 609.658 -29.0798C565.431 13.2801 521.204 55.6401 477.028 98C424.499 58.7386 372.482 18.9879 320.875 -21.2112C359.875 -60.3504 398.926 -99.4079 437.926 -138.506Z" fill="#64BE00"/>
<path d="M701.031 23.846C761.043 63.8005 820.439 104.367 879.119 145.585C827.717 191.981 776.264 238.377 724.862 284.773C667.105 244.534 610.015 203.723 553.539 162.341C602.737 116.19 651.884 70.0383 701.082 23.846H701.031Z" fill="#50B300"/>
<path d="M998.884 466.524C993.605 471.009 988.327 475.453 983.048 479.938C911.044 434.398 840.066 387.92 770.266 340.423C832.071 285.383 893.927 230.344 955.733 175.305C970.185 185.701 984.534 196.138 998.884 206.616V466.524Z" fill="#1F8400"/>
<path d="M998.891 52.9531C982.44 67.7526 966.041 82.5521 949.59 97.3516C884.3 51.1185 817.524 6.27161 749.312 -37.2299C796.717 -81.8322 844.122 -126.434 891.526 -170.996H945.337C963.376 -160.314 981.21 -149.388 998.84 -138.299V52.9939L998.891 52.9531Z" fill="#27A300"/>
</g>
<path d="M998.889 5.04693C993.764 9.61316 988.691 14.1386 983.566 18.6641C966.398 5.74 948.82 -6.89864 930.883 -19.2112C946.052 -32.9914 961.17 -46.7309 976.34 -60.5111C983.925 -55.2925 991.407 -49.9925 998.889 -44.6516V5.04693Z" fill="#58DA00"/>
<path d="M998.892 173.107C997.252 174.493 995.612 175.879 993.972 177.266C967.528 157.166 940.828 137.311 913.82 117.66C937.856 96.4596 961.891 75.3 985.926 54.0997C990.283 57.4428 994.536 60.8267 998.841 64.2106V173.066L998.892 173.107Z" fill="#075100"/>
<path d="M905.874 112.641C878.457 92.8264 850.783 73.2976 822.75 54.0135C846.837 31.957 870.923 9.94119 895.01 -12.1153C923.76 7.20961 951.793 27.2684 978.954 47.9795C954.56 69.5468 930.217 91.0733 905.823 112.641H905.874Z" fill="#014B00"/>
<path d="M815.476 48.0625C787.905 29.1453 760.026 10.5134 731.891 -7.87382C754.184 -29.0742 776.528 -50.2746 798.821 -71.4749C828.698 -53.9846 857.859 -35.8012 886.301 -16.9248C862.727 4.72408 839.102 26.4137 815.476 48.0625Z" fill="#045700"/>
<path d="M998.893 287.461C978.291 274.251 957.741 260.961 937.344 247.588C956.818 231.158 976.292 214.727 995.767 198.297C996.843 199.072 997.868 199.887 998.893 200.662V287.461Z" fill="#349A00"/>
<path d="M915.152 223.984C896.498 211.509 877.946 198.952 859.445 186.313C875.691 172.084 891.885 157.896 908.131 143.668C926.427 156.796 944.62 170.005 962.762 183.255C946.875 196.832 930.988 210.408 915.152 223.984Z" fill="#42D206"/>
<path d="M824.802 161.078C807.122 148.847 789.492 136.575 771.914 124.263C787.493 110.116 803.022 95.9686 818.601 81.8214C836.435 94.2155 854.167 106.732 871.848 119.248C856.166 133.191 840.484 147.135 824.802 161.078Z" fill="#4ADB04"/>
<path d="M735.68 98.4141C718.307 86.1015 700.985 73.7075 683.766 61.2727C698.423 47.4109 713.131 33.5491 727.788 19.6874C745.725 31.796 763.559 43.9862 781.342 56.258C766.121 70.3236 750.901 84.3892 735.68 98.4141Z" fill="#2CE908"/>
<path d="M649.017 47.8984C626.366 31.2235 603.868 14.4263 581.523 -2.49318C598.794 -19.6165 616.065 -36.6991 633.335 -53.8225C657.627 -38.1668 681.816 -22.3889 705.851 -6.48861C686.941 11.654 667.979 29.7558 649.017 47.8984Z" fill="#3C9100"/>
<path d="M998.888 382.906C984.589 376.342 970.394 369.697 956.352 362.888C970.547 351.473 984.692 340.057 998.888 328.601V382.865V382.906Z" fill="#1B8A00"/>
<path d="M930.476 324.398C921.302 319.425 912.18 314.369 903.109 309.314C910.13 303.443 917.151 297.572 924.172 291.701C933.09 297.001 942.007 302.22 951.026 307.438C944.159 313.064 937.343 318.731 930.476 324.358V324.398Z" fill="#B2FF0D"/>
<path d="M834.898 268.547C826.749 263.614 818.601 258.599 810.555 253.584C817.473 247.591 824.34 241.598 831.259 235.564C839.305 240.701 847.351 245.797 855.448 250.893C848.632 256.764 841.765 262.676 834.949 268.547H834.898Z" fill="#A8FF0D"/>
<path d="M745.672 235.523C726.147 222.722 706.98 209.635 688.172 196.221C705.238 180.647 722.354 165.114 739.42 149.54C758.536 163.035 777.856 176.366 797.33 189.576C780.111 204.864 762.892 220.194 745.621 235.523H745.672Z" fill="#2AC60D"/>
<path d="M656.813 148.602C649.177 142.812 641.541 136.982 634.008 131.111C640.824 124.71 647.691 118.309 654.507 111.868C662.194 117.698 669.882 123.446 677.671 129.195C670.753 135.637 663.783 142.119 656.813 148.561V148.602Z" fill="#A4FF0D"/>
<path d="M573.842 80.8047C567.283 75.3007 560.774 69.7968 554.266 64.2113C559.852 58.7481 565.438 53.285 571.024 47.8218C577.686 53.285 584.348 58.7074 591.062 64.1298C585.322 69.6745 579.582 75.2192 573.842 80.8047Z" fill="#A7FF0D"/>
<g opacity="0.4">
<path d="M525.404 73.7845C531.503 79.4107 537.704 84.9554 543.905 90.5409C538.37 95.9225 532.835 101.304 527.301 106.727C521.253 101.1 515.257 95.3925 509.312 89.6847C514.694 84.3846 520.075 79.0845 525.456 73.8252L525.404 73.7845Z" fill="#D0FF0D"/>
<path d="M646.811 153.78C662.698 165.889 678.841 177.794 695.24 189.495C680.378 203.03 665.516 216.566 650.655 230.102C634.511 218.482 618.727 206.537 603.25 194.265C617.753 180.77 632.256 167.275 646.76 153.78H646.811Z" fill="#8CFF0D"/>
<path d="M780.108 246.241C797.532 257.289 815.162 268.134 833.047 278.734C818.237 291.455 803.375 304.216 788.564 316.977C770.32 306.988 752.383 296.673 734.805 286.032C749.923 272.782 764.99 259.491 780.108 246.241Z" fill="#88FF0D"/>
<path d="M927.605 344.708C937.701 349.845 947.848 354.9 958.098 359.874C951.077 365.541 944.005 371.208 936.984 376.875C926.529 372.186 916.074 367.416 905.773 362.565C913.051 356.612 920.328 350.66 927.605 344.667V344.708Z" fill="#BFFF0D"/>
<path d="M618.265 -74.3322C649.322 -54.9665 680.173 -35.3154 710.717 -15.4197C686.938 7.37066 663.107 30.161 639.328 52.9922C611.039 31.8326 583.058 10.4692 555.281 -11.1796C576.293 -32.2577 597.305 -53.2542 618.316 -74.3322H618.265Z" fill="#64BE00"/>
<path d="M759.922 13.0008C792.209 34.5273 824.188 56.3392 855.756 78.5181C828.082 103.51 800.408 128.461 772.734 153.453C741.627 131.804 710.929 109.829 680.539 87.569C707.034 62.7401 733.478 37.8705 759.922 13.0416V13.0008Z" fill="#50B300"/>
<path d="M998.892 184.681C969.835 209.306 940.777 233.891 911.719 258.516C872.976 234.013 834.745 208.98 797.18 183.417C830.44 153.778 863.751 124.179 897.011 94.5798C931.552 119.409 965.427 144.768 998.892 170.493V184.681Z" fill="#1F8400"/>
<path d="M998.889 308.625C979.825 297.046 960.863 285.386 942.055 273.604C961.017 257.785 979.927 241.925 998.889 226.107V308.625Z" fill="#229B00"/>
<path d="M873.486 -102.26C912.588 -79.918 950.102 -55.9045 985.719 -30.301C955.022 -2.65899 924.324 24.983 893.626 52.625C858.521 27.7554 822.545 3.61955 785.852 -19.8232C815.063 -47.3021 844.274 -74.781 873.486 -102.26Z" fill="#27A300"/>
<path d="M998.891 128.539C976.085 110.6 952.973 92.947 929.398 75.6605C952.563 55.1125 975.727 34.5237 998.891 13.9756V128.539Z" fill="#2CAD00"/>
</g>
</g>
</g>
<defs>
<clipPath id="clip0_1414_789">
<rect width="969" height="968" fill="white" transform="matrix(1 0 0 -1 0 826)"/>
</clipPath>
</defs>
</svg>
